<?xml version="1.0" encoding="iso-8859-1"?>
<!-- Generator: Adobe Illustrator 19.0.0, SVG Export Plug-In . SVG Version: 6.00 Build 0)  -->
<!-- License: CC0. Made by SVG Repo: https://www.svgrepo.com/svg/296263/crane -->
<svg version="1.1" id="Layer_1" xmlns="http://www.w3.org/2000/svg" xmlns:xlink="http://www.w3.org/1999/xlink" x="0px" y="0px"
	 viewBox="0 0 512 512" style="enable-background:new 0 0 512 512;" xml:space="preserve">
<path style="fill:#CCC3A8;" d="M261.202,159.47H79.243c-4.61,0-8.348-3.736-8.348-8.348s3.738-8.348,8.348-8.348h181.959
	c4.611,0,8.348,3.736,8.348,8.348C269.55,155.734,265.813,159.47,261.202,159.47z"/>
<path style="fill:#7C7A75;" d="M316.856,128.278c0-7.376-5.979-13.357-13.357-13.357h-55.453c-7.376,0-13.357,5.98-13.357,13.357
	v32.334c0,7.377,5.98,13.357,13.357,13.357h55.453c7.377,0,13.357-5.979,13.357-13.357V128.278z"/>
<path style="fill:#6B6861;" d="M256.474,160.612v-32.334c0-7.376,5.98-13.357,13.357-13.357h-21.784
	c-7.376,0-13.357,5.98-13.357,13.357v32.334c0,7.377,5.98,13.357,13.357,13.357h21.784
	C262.455,173.969,256.474,167.989,256.474,160.612z"/>
<g>
	<path style="fill:#ADABA6;" d="M310.783,449.948c-1.9,0-3.811-0.646-5.377-1.967c-3.525-2.973-3.971-8.239-0.998-11.764
		l81.44-96.552l-81.441-96.554c-2.623-3.11-2.623-7.656,0-10.765l85.98-101.937c2.972-3.524,8.239-3.97,11.763-0.998
		c3.524,2.973,3.971,8.239,1,11.764l-81.44,96.554l81.44,96.554c2.622,3.11,2.622,7.655,0,10.765l-85.98,101.935
		C315.517,448.939,313.158,449.948,310.783,449.948z"/>
	<path style="fill:#ADABA6;" d="M396.771,449.948c-2.376,0-4.734-1.007-6.384-2.965l-85.98-101.935
		c-2.621-3.11-2.623-7.656,0-10.765l81.441-96.554l-81.441-96.554c-2.973-3.525-2.526-8.791,0.998-11.764
		c3.525-2.972,8.79-2.524,11.763,0.998l85.98,101.937c2.622,3.11,2.622,7.656,0,10.765l-81.44,96.554l81.44,96.552
		c2.973,3.525,2.526,8.791-1,11.764C400.583,449.302,398.672,449.948,396.771,449.948z"/>
</g>
<g>
	<polygon style="fill:#93918D;" points="342.138,417.378 342.138,391.483 314.312,424.471 314.312,441.6 321.709,441.6 	"/>
	<polygon style="fill:#93918D;" points="342.138,213.505 342.138,187.61 314.312,220.6 314.312,254.857 342.138,287.846 
		342.138,261.951 321.709,237.728 	"/>
	<polygon style="fill:#93918D;" points="342.138,363.887 321.709,339.665 342.138,315.442 342.138,289.547 314.312,322.537 
		314.312,356.794 342.138,389.782 	"/>
	<polygon style="fill:#93918D;" points="314.312,138.323 314.312,152.92 342.138,185.909 342.138,160.014 323.844,138.323 	"/>
</g>
<g>
	<path style="fill:#CCC3A8;" d="M107.355,355.455c-3.005,0-5.908-1.627-7.401-4.474l-17.636-33.635
		c-2.14-4.083-0.567-9.128,3.516-11.27c4.084-2.137,9.129-0.567,11.271,3.517l17.636,33.635c2.14,4.083,0.567,9.128-3.516,11.27
		C109.988,355.147,108.661,355.455,107.355,355.455z"/>
	<path style="fill:#CCC3A8;" d="M55.814,356.167c-1.307,0-2.632-0.307-3.87-0.956c-4.083-2.142-5.658-7.187-3.517-11.27
		l18.962-36.162c2.14-4.085,7.187-5.659,11.27-3.517s5.658,7.187,3.516,11.27l-18.962,36.162
		C61.722,354.54,58.818,356.167,55.814,356.167z"/>
	<path style="fill:#CCC3A8;" d="M81.771,293.876c-4.61,0-8.348-3.736-8.348-8.348V151.122c0-4.611,3.738-8.348,8.348-8.348
		c4.61,0,8.348,3.736,8.348,8.348v134.406C90.119,290.139,86.381,293.876,81.771,293.876z"/>
</g>
<g>
	<path style="fill:#7C7A75;" d="M81.17,114.553c-3.474,0-6.717-2.185-7.9-5.655c-1.488-4.364,0.843-9.108,5.207-10.596L348.665,6.16
		c4.364-1.487,9.108,0.844,10.595,5.207c1.488,4.364-0.844,9.108-5.207,10.595L83.864,114.105
		C82.972,114.409,82.062,114.553,81.17,114.553z"/>
	<path style="fill:#7C7A75;" d="M438.564,114.551c-2.275,0-4.54-0.924-6.189-2.743l-79.097-87.274
		c-3.095-3.415-2.836-8.695,0.58-11.792c3.416-3.094,8.696-2.836,11.793,0.581l79.096,87.274c3.096,3.415,2.837,8.695-0.58,11.792
		C442.569,113.837,440.563,114.551,438.564,114.551z"/>
	<path style="fill:#7C7A75;" d="M445.129,487.125L429.828,453.2c-0.9-1.995-2.885-3.277-5.073-3.277H282.799
		c-2.188,0-4.174,1.282-5.073,3.277l-15.299,33.924c-0.777,1.723-0.628,3.721,0.396,5.307c1.026,1.587,2.787,2.546,4.676,2.546
		h172.555c1.89,0,3.65-0.958,4.675-2.546C445.755,490.845,445.905,488.846,445.129,487.125z"/>
</g>
<path style="fill:#6B6861;" d="M287.911,492.433c-1.024-1.587-1.174-3.585-0.397-5.307l15.3-33.924
	c0.898-1.995,2.885-3.277,5.072-3.277H282.8c-2.188,0-4.174,1.282-5.073,3.277l-15.299,33.924c-0.777,1.723-0.628,3.721,0.396,5.307
	c1.026,1.587,2.787,2.546,4.676,2.546h25.087C290.698,494.978,288.937,494.02,287.911,492.433z"/>
<path style="fill:#7C7A75;" d="M454.328,116.035c0-7.376-5.979-13.357-13.357-13.357h-4.822c-7.376,0-13.357,5.98-13.357,13.357
	v44.577c0,7.377,5.98,13.357,13.357,13.357h4.822c7.377,0,13.357-5.979,13.357-13.357V116.035z"/>
<g>
	<path style="fill:#CCC3A8;" d="M352.062,0h3.428c7.704,0,13.95,6.245,13.95,13.95v9.435v12.872v1.96v2.721v4.753v1.96v2.723v10.15
		v2.724v1.959v4.753v2.723v1.96v12.872v9.434h-31.329v-9.434V74.642v-1.96v-2.723v-4.753v-1.959v-2.724v-10.15v-2.723v-1.96v-4.753
		v-2.721v-1.96V23.385V13.95C338.113,6.245,344.359,0,352.062,0z"/>
	<path style="fill:#CCC3A8;" d="M415.722,480.671h38.607c7.704,0,13.95,6.245,13.95,13.95v3.428c0,7.704-6.245,13.95-13.95,13.95
		h-83.848h-33.407h-83.848c-7.703,0-13.949-6.245-13.949-13.95v-3.428c0-7.704,6.245-13.95,13.949-13.95h83.848h38.972h9.625"/>
</g>
<g>
	<path style="fill:#C9B585;" d="M262.005,498.05v-3.428c0-7.704,6.244-13.95,13.949-13.95h-22.728
		c-7.703,0-13.949,6.245-13.949,13.95v3.428c0,7.704,6.245,13.95,13.949,13.95h22.728C268.25,512,262.005,505.755,262.005,498.05z"
		/>
	<path style="fill:#C9B585;" d="M69.159,114.326v-3.428c0-7.704,6.245-13.95,13.95-13.95H60.38c-7.703,0-13.95,6.245-13.95,13.95
		v3.428c0,7.704,6.245,13.95,13.95,13.95h22.728C75.404,128.276,69.159,122.031,69.159,114.326z"/>
</g>
<path style="fill:#7C7A75;" d="M65.506,114.922v9.435v3.919v8.954v0.481v8.953v3.92v9.434c0,7.704,6.245,13.95,13.95,13.95h3.428
	c7.704,0,13.951-6.245,13.951-13.95v-9.434v-3.92v-8.953v-0.481v-8.954v-3.919v-9.435C96.835,114.922,65.506,114.922,65.506,114.922
	z"/>
<path style="fill:#FFB92E;" d="M305.161,96.948h65.319h83.848c7.704,0,13.95,6.245,13.95,13.95v3.428
	c0,7.704-6.245,13.95-13.95,13.95H370.48H144.228H60.38c-7.704,0-13.95-6.245-13.95-13.95v-3.428c0-7.704,6.245-13.95,13.95-13.95
	h83.848H275.85"/>
<g>
	<path style="fill:#CCC3A8;" d="M396.767,449.948h-85.98c-4.61,0-8.348-3.736-8.348-8.348V339.665c0-4.611,3.738-8.348,8.348-8.348
		h85.98c4.611,0,8.348,3.736,8.348,8.348V441.6C405.114,446.211,401.378,449.948,396.767,449.948z M319.134,433.252h69.285v-85.239
		h-69.285V433.252z"/>
	<path style="fill:#CCC3A8;" d="M396.767,348.013h-85.98c-4.61,0-8.348-3.738-8.348-8.348V237.728c0-4.611,3.738-8.348,8.348-8.348
		h85.98c4.611,0,8.348,3.736,8.348,8.348v101.937C405.114,344.275,401.378,348.013,396.767,348.013z M319.134,331.317h69.285
		v-85.241h-69.285V331.317z"/>
	<path style="fill:#CCC3A8;" d="M396.767,246.076h-85.98c-4.61,0-8.348-3.736-8.348-8.348V135.791c0-4.611,3.738-8.348,8.348-8.348
		h85.98c4.611,0,8.348,3.736,8.348,8.348v101.937C405.114,242.34,401.378,246.076,396.767,246.076z M319.134,229.38h69.285v-85.241
		h-69.285V229.38z"/>
</g>
<path style="fill:#FFB92E;" d="M81.771,319.476c-11.661,0-21.148-9.486-21.148-21.148s9.486-21.148,21.148-21.148
	s21.148,9.486,21.148,21.148S93.432,319.476,81.771,319.476z M81.771,293.876c-2.454,0-4.452,1.997-4.452,4.452
	c0,2.455,1.998,4.452,4.452,4.452c2.455,0,4.452-1.997,4.452-4.452C86.223,295.873,84.226,293.876,81.771,293.876z"/>
<path style="fill:#E35F46;" d="M106.464,342.322H57.078c-7.376,0-13.357,5.98-13.357,13.357v38.062h76.098v-38.062
	C119.82,348.302,113.84,342.322,106.464,342.322z"/>
<g>
	<path style="fill:#EF9A1D;" d="M68.215,114.326v-3.428c0-7.704,6.245-13.95,13.95-13.95H60.38c-7.704,0-13.95,6.245-13.95,13.95
		v3.428c0,7.704,6.245,13.95,13.95,13.95h21.784C74.46,128.276,68.215,122.031,68.215,114.326z"/>
	<path style="fill:#EF9A1D;" d="M82.851,302.633c-0.348,0.087-0.706,0.148-1.08,0.148c-2.454,0-4.452-1.997-4.452-4.452
		c0-2.455,1.998-4.452,4.452-4.452c0.374,0,0.732,0.061,1.08,0.148c1.213-5.845,4.858-10.794,9.813-13.788
		c-3.187-1.926-6.905-3.055-10.892-3.055c-11.661,0-21.148,9.486-21.148,21.148s9.486,21.148,21.148,21.148
		c3.987,0,7.706-1.13,10.892-3.055C87.709,313.427,84.064,308.477,82.851,302.633z"/>
	<path style="fill:#EF9A1D;" d="M102.476,294.024c-1.931,0.485-3.373,2.223-3.373,4.304s1.44,3.819,3.373,4.304
		c0.289-1.39,0.443-2.829,0.443-4.304S102.765,295.414,102.476,294.024z"/>
</g>
<path style="fill:#D8422E;" d="M78.864,342.322H57.078c-7.376,0-13.357,5.98-13.357,13.357v38.062h21.784v-38.062
	C65.507,348.302,71.486,342.322,78.864,342.322z"/>
<rect x="96.835" y="142.77" style="fill:#C9B585;" width="22.261" height="16.696"/>
<path style="fill:#CE3B28;" d="M43.721,399.36c0,7.377,5.98,13.357,13.357,13.357h49.385c7.376,0,13.357-5.979,13.357-13.357
	v-11.346H43.721V399.36z"/>
<path style="fill:#B22B20;" d="M65.507,399.36v-11.346H43.721v11.346c0,7.377,5.98,13.357,13.357,13.357h21.784
	C71.486,412.716,65.507,406.737,65.507,399.36z"/>
</svg>
