<svg width="33" height="33" viewBox="0 0 33 33" fill="none" xmlns="http://www.w3.org/2000/svg">
<path d="M16.2852 10.4327C15.0985 10.4327 13.9385 10.7846 12.9518 11.4439C11.9651 12.1031 11.1961 13.0402 10.7419 14.1366C10.2878 15.2329 10.169 16.4393 10.4005 17.6032C10.632 18.7671 11.2035 19.8362 12.0426 20.6753C12.8817 21.5144 13.9508 22.0859 15.1147 22.3174C16.2786 22.5489 17.485 22.4301 18.5813 21.976C19.6777 21.5218 20.6147 20.7528 21.274 19.7661C21.9333 18.7794 22.2852 17.6194 22.2852 16.4327C22.2836 14.8419 21.6509 13.3167 20.526 12.1919C19.4012 11.067 17.876 10.4343 16.2852 10.4327ZM16.2852 20.4327C15.4941 20.4327 14.7207 20.1981 14.0629 19.7586C13.4051 19.319 12.8924 18.6943 12.5897 17.9634C12.2869 17.2325 12.2077 16.4282 12.3621 15.6523C12.5164 14.8764 12.8974 14.1637 13.4568 13.6042C14.0162 13.0448 14.7289 12.6639 15.5049 12.5095C16.2808 12.3552 17.085 12.4344 17.8159 12.7372C18.5469 13.0399 19.1716 13.5526 19.6111 14.2104C20.0506 14.8682 20.2852 15.6415 20.2852 16.4327C20.2852 17.4935 19.8638 18.511 19.1136 19.2611C18.3635 20.0112 17.3461 20.4327 16.2852 20.4327ZM27.2852 16.7027C27.2902 16.5227 27.2902 16.3427 27.2852 16.1627L29.1502 13.8327C29.248 13.7103 29.3157 13.5667 29.3478 13.4135C29.38 13.2602 29.3756 13.1015 29.3352 12.9502C29.0295 11.8009 28.5721 10.6975 27.9752 9.66892C27.8971 9.53432 27.7886 9.41982 27.6584 9.33454C27.5281 9.24925 27.3798 9.19554 27.2252 9.17767L24.2602 8.84767C24.1369 8.71767 24.0119 8.59267 23.8852 8.47267L23.5352 5.50017C23.5172 5.34544 23.4633 5.19705 23.3778 5.06684C23.2923 4.93662 23.1775 4.82819 23.0427 4.75017C22.0138 4.15436 20.9104 3.69747 19.7615 3.39142C19.6101 3.35117 19.4513 3.34705 19.298 3.3794C19.1447 3.41176 19.0012 3.47967 18.879 3.57767L16.5552 5.43267C16.3752 5.43267 16.1952 5.43267 16.0152 5.43267L13.6852 3.57142C13.5629 3.47363 13.4193 3.40595 13.266 3.37381C13.1127 3.34168 12.954 3.346 12.8027 3.38642C11.6537 3.69271 10.5503 4.15003 9.52146 4.74642C9.38686 4.82458 9.27236 4.93308 9.18708 5.06329C9.10179 5.19349 9.04808 5.3418 9.03021 5.49642L8.70021 8.46642C8.57021 8.59059 8.44521 8.71559 8.32521 8.84142L5.35271 9.18267C5.19798 9.20068 5.04959 9.25458 4.91938 9.34009C4.78916 9.42559 4.68073 9.54034 4.60271 9.67517C4.0069 10.7041 3.55001 11.8075 3.24396 12.9564C3.20371 13.1078 3.19959 13.2666 3.23194 13.4199C3.2643 13.5732 3.33221 13.7167 3.43021 13.8389L5.28521 16.1627C5.28521 16.3427 5.28521 16.5227 5.28521 16.7027L3.42396 19.0327C3.32617 19.155 3.25849 19.2986 3.22635 19.4519C3.19422 19.6052 3.19854 19.7639 3.23896 19.9152C3.5447 21.0644 4.00205 22.1679 4.59896 23.1964C4.67712 23.331 4.78562 23.4455 4.91582 23.5308C5.04603 23.6161 5.19434 23.6698 5.34896 23.6877L8.31396 24.0177C8.43813 24.1477 8.56313 24.2727 8.68896 24.3927L9.03521 27.3652C9.05322 27.5199 9.10712 27.6683 9.19263 27.7985C9.27813 27.9287 9.39288 28.0372 9.52771 28.1152C10.5567 28.711 11.66 29.1679 12.809 29.4739C12.9604 29.5142 13.1191 29.5183 13.2724 29.4859C13.4257 29.4536 13.5692 29.3857 13.6915 29.2877L16.0152 27.4327C16.1952 27.4377 16.3752 27.4377 16.5552 27.4327L18.8852 29.2977C19.0075 29.3955 19.1511 29.4632 19.3044 29.4953C19.4577 29.5274 19.6164 29.5231 19.7677 29.4827C20.917 29.1769 22.0204 28.7196 23.049 28.1227C23.1836 28.0445 23.2981 27.936 23.3834 27.8058C23.4686 27.6756 23.5223 27.5273 23.5402 27.3727L23.8702 24.4077C24.0002 24.2843 24.1252 24.1593 24.2452 24.0327L27.2177 23.6827C27.3724 23.6647 27.5208 23.6108 27.6511 23.5253C27.7813 23.4398 27.8897 23.325 27.9677 23.1902C28.5635 22.1612 29.0204 21.0579 29.3265 19.9089C29.3667 19.7575 29.3708 19.5988 29.3385 19.4455C29.3061 19.2922 29.2382 19.1487 29.1402 19.0264L27.2852 16.7027ZM25.2727 15.8902C25.294 16.2515 25.294 16.6138 25.2727 16.9752C25.2578 17.2226 25.3353 17.4667 25.4902 17.6602L27.264 19.8764C27.0604 20.5233 26.7998 21.1507 26.4852 21.7514L23.6602 22.0714C23.4142 22.0987 23.187 22.2163 23.0227 22.4014C22.7821 22.672 22.5258 22.9283 22.2552 23.1689C22.0701 23.3333 21.9525 23.5604 21.9252 23.8064L21.6115 26.6289C21.0108 26.9437 20.3834 27.2043 19.7365 27.4077L17.519 25.6339C17.3415 25.4921 17.1211 25.415 16.894 25.4152H16.834C16.4726 25.4364 16.1103 25.4364 15.749 25.4152C15.5016 25.4003 15.2575 25.4778 15.064 25.6327L12.8415 27.4077C12.1946 27.2041 11.5672 26.9435 10.9665 26.6289L10.6465 23.8077C10.6192 23.5617 10.5016 23.3345 10.3165 23.1702C10.0458 22.9296 9.78958 22.6733 9.54896 22.4027C9.38463 22.2176 9.15748 22.1 8.91146 22.0727L6.08896 21.7577C5.7742 21.157 5.51359 20.5296 5.31021 19.8827L7.08396 17.6652C7.23884 17.4717 7.31636 17.2276 7.30146 16.9802C7.28021 16.6188 7.28021 16.2565 7.30146 15.8952C7.31636 15.6478 7.23884 15.4037 7.08396 15.2102L5.31021 12.9889C5.51374 12.3421 5.77435 11.7146 6.08896 11.1139L8.91021 10.7939C9.15623 10.7666 9.38338 10.649 9.54771 10.4639C9.78833 10.1933 10.0446 9.93704 10.3152 9.69642C10.5011 9.53198 10.6191 9.30432 10.6465 9.05767L10.9602 6.23642C11.5608 5.92166 12.1883 5.66105 12.8352 5.45767L15.0527 7.23142C15.2462 7.38631 15.4903 7.46382 15.7377 7.44892C16.0991 7.42767 16.4614 7.42767 16.8227 7.44892C17.0701 7.46382 17.3142 7.38631 17.5077 7.23142L19.729 5.45767C20.3758 5.66121 21.0033 5.92181 21.604 6.23642L21.924 9.05767C21.9513 9.30369 22.0689 9.53084 22.254 9.69517C22.5246 9.93579 22.7809 10.1921 23.0215 10.4627C23.1858 10.6478 23.4129 10.7654 23.659 10.7927L26.4815 11.1064C26.7962 11.7071 27.0568 12.3345 27.2602 12.9814L25.4865 15.1989C25.3301 15.394 25.2525 15.6407 25.269 15.8902H25.2727Z" fill="#030080"/>
</svg>
