<svg width="32" height="33" viewBox="0 0 32 33" fill="none" xmlns="http://www.w3.org/2000/svg">
<path d="M30 26.4326H28V17.4326L28.2925 17.7251C28.4805 17.9127 28.7353 18.018 29.0009 18.0178C29.2665 18.0175 29.5211 17.9118 29.7087 17.7238C29.8964 17.5359 30.0017 17.281 30.0014 17.0154C30.0012 16.7498 29.8955 16.4952 29.7075 16.3076L17.4137 4.01757C17.0387 3.64278 16.5302 3.43225 16 3.43225C15.4698 3.43225 14.9613 3.64278 14.5863 4.01757L2.2925 16.3076C2.10503 16.4952 1.99977 16.7496 1.99989 17.0149C2 17.2801 2.10548 17.5345 2.29312 17.7219C2.48077 17.9094 2.7352 18.0147 3.00044 18.0146C3.26569 18.0144 3.52003 17.909 3.7075 17.7213L4 17.4326V26.4326H2C1.73478 26.4326 1.48043 26.5379 1.29289 26.7255C1.10536 26.913 1 27.1674 1 27.4326C1 27.6978 1.10536 27.9521 1.29289 28.1397C1.48043 28.3272 1.73478 28.4326 2 28.4326H30C30.2652 28.4326 30.5196 28.3272 30.7071 28.1397C30.8946 27.9521 31 27.6978 31 27.4326C31 27.1674 30.8946 26.913 30.7071 26.7255C30.5196 26.5379 30.2652 26.4326 30 26.4326ZM6 15.4326L16 5.43257L26 15.4326V26.4326H20V19.4326C20 19.1674 19.8946 18.913 19.7071 18.7255C19.5196 18.5379 19.2652 18.4326 19 18.4326H13C12.7348 18.4326 12.4804 18.5379 12.2929 18.7255C12.1054 18.913 12 19.1674 12 19.4326V26.4326H6V15.4326ZM18 26.4326H14V20.4326H18V26.4326Z" fill="#030080"/>
</svg>
