<svg width="33" height="33" viewBox="0 0 33 33" fill="none" xmlns="http://www.w3.org/2000/svg">
<path d="M28.7139 16.4326C28.7139 16.6978 28.6085 16.9522 28.421 17.1397C28.2334 17.3273 27.9791 17.4326 27.7139 17.4326H5.71387C5.44865 17.4326 5.1943 17.3273 5.00676 17.1397C4.81922 16.9522 4.71387 16.6978 4.71387 16.4326C4.71387 16.1674 4.81922 15.913 5.00676 15.7255C5.1943 15.538 5.44865 15.4326 5.71387 15.4326H27.7139C27.9791 15.4326 28.2334 15.538 28.421 15.7255C28.6085 15.913 28.7139 16.1674 28.7139 16.4326ZM5.71387 9.43262H27.7139C27.9791 9.43262 28.2334 9.32726 28.421 9.13972C28.6085 8.95219 28.7139 8.69783 28.7139 8.43262C28.7139 8.1674 28.6085 7.91305 28.421 7.72551C28.2334 7.53797 27.9791 7.43262 27.7139 7.43262H5.71387C5.44865 7.43262 5.1943 7.53797 5.00676 7.72551C4.81922 7.91305 4.71387 8.1674 4.71387 8.43262C4.71387 8.69783 4.81922 8.95219 5.00676 9.13972C5.1943 9.32726 5.44865 9.43262 5.71387 9.43262ZM27.7139 23.4326H5.71387C5.44865 23.4326 5.1943 23.538 5.00676 23.7255C4.81922 23.913 4.71387 24.1674 4.71387 24.4326C4.71387 24.6978 4.81922 24.9522 5.00676 25.1397C5.1943 25.3273 5.44865 25.4326 5.71387 25.4326H27.7139C27.9791 25.4326 28.2334 25.3273 28.421 25.1397C28.6085 24.9522 28.7139 24.6978 28.7139 24.4326C28.7139 24.1674 28.6085 23.913 28.421 23.7255C28.2334 23.538 27.9791 23.4326 27.7139 23.4326Z" fill="#030080"/>
</svg>
