<svg width="33" height="33" viewBox="0 0 33 33" fill="none" xmlns="http://www.w3.org/2000/svg">
<path d="M16.5713 11.4326C15.5824 11.4326 14.6157 11.7259 13.7934 12.2753C12.9712 12.8247 12.3303 13.6056 11.9519 14.5192C11.5735 15.4328 11.4744 16.4382 11.6674 17.4081C11.8603 18.378 12.3365 19.2689 13.0358 19.9682C13.735 20.6674 14.6259 21.1436 15.5958 21.3365C16.5657 21.5295 17.5711 21.4305 18.4847 21.052C19.3983 20.6736 20.1792 20.0327 20.7286 19.2105C21.278 18.3882 21.5713 17.4215 21.5713 16.4326C21.5713 15.1065 21.0445 13.8348 20.1068 12.8971C19.1691 11.9594 17.8974 11.4326 16.5713 11.4326ZM16.5713 19.4326C15.9779 19.4326 15.3979 19.2567 14.9046 18.927C14.4112 18.5974 14.0267 18.1288 13.7997 17.5807C13.5726 17.0325 13.5132 16.4293 13.6289 15.8473C13.7447 15.2654 14.0304 14.7309 14.45 14.3113C14.8695 13.8917 15.4041 13.606 15.986 13.4903C16.568 13.3745 17.1712 13.4339 17.7193 13.661C18.2675 13.888 18.7361 14.2726 19.0657 14.7659C19.3953 15.2593 19.5713 15.8393 19.5713 16.4326C19.5713 17.2283 19.2552 17.9913 18.6926 18.5539C18.13 19.1165 17.3669 19.4326 16.5713 19.4326ZM30.5713 7.43262H2.57129C2.30607 7.43262 2.05172 7.53797 1.86418 7.72551C1.67665 7.91305 1.57129 8.1674 1.57129 8.43262V24.4326C1.57129 24.6978 1.67665 24.9522 1.86418 25.1397C2.05172 25.3273 2.30607 25.4326 2.57129 25.4326H30.5713C30.8365 25.4326 31.0909 25.3273 31.2784 25.1397C31.4659 24.9522 31.5713 24.6978 31.5713 24.4326V8.43262C31.5713 8.1674 31.4659 7.91305 31.2784 7.72551C31.0909 7.53797 30.8365 7.43262 30.5713 7.43262ZM24.7775 23.4326H8.36504C8.0293 22.2971 7.4148 21.2637 6.57752 20.4264C5.74024 19.5891 4.70679 18.9746 3.57129 18.6389V14.2264C4.70679 13.8906 5.74024 13.2761 6.57752 12.4388C7.4148 11.6016 8.0293 10.5681 8.36504 9.43262H24.7775C25.1133 10.5681 25.7278 11.6016 26.5651 12.4388C27.4023 13.2761 28.4358 13.8906 29.5713 14.2264V18.6389C28.4358 18.9746 27.4023 19.5891 26.5651 20.4264C25.7278 21.2637 25.1133 22.2971 24.7775 23.4326ZM29.5713 12.1039C28.3718 11.5881 27.4158 10.6321 26.9 9.43262H29.5713V12.1039ZM6.24254 9.43262C5.72678 10.6321 4.77074 11.5881 3.57129 12.1039V9.43262H6.24254ZM3.57129 20.7614C4.77074 21.2771 5.72678 22.2332 6.24254 23.4326H3.57129V20.7614ZM26.9 23.4326C27.4158 22.2332 28.3718 21.2771 29.5713 20.7614V23.4326H26.9Z" fill="#030080"/>
</svg>
