<svg width="33" height="33" viewBox="0 0 33 33" fill="none" xmlns="http://www.w3.org/2000/svg">
<path d="M16.4287 3.43262C13.8576 3.43262 11.3441 4.19505 9.2063 5.62351C7.06846 7.05197 5.40222 9.08229 4.41828 11.4577C3.43434 13.8332 3.1769 16.447 3.67851 18.9688C4.18012 21.4905 5.41825 23.8069 7.23633 25.625C9.05441 27.4431 11.3708 28.6812 13.8925 29.1828C16.4143 29.6844 19.0282 29.427 21.4036 28.4431C23.779 27.4591 25.8094 25.7929 27.2378 23.655C28.6663 21.5172 29.4287 19.0038 29.4287 16.4326C29.4251 12.9859 28.0543 9.68143 25.6171 7.24425C23.1799 4.80706 19.8754 3.43626 16.4287 3.43262ZM16.4287 27.4326C14.2531 27.4326 12.1264 26.7875 10.3174 25.5788C8.5085 24.3701 7.09861 22.6521 6.26604 20.6421C5.43348 18.6321 5.21564 16.4204 5.64008 14.2866C6.06452 12.1528 7.11216 10.1928 8.65054 8.65444C10.1889 7.11607 12.1489 6.06842 14.2827 5.64398C16.4165 5.21954 18.6282 5.43738 20.6382 6.26994C22.6482 7.10251 24.3662 8.5124 25.5749 10.3213C26.7836 12.1303 27.4287 14.257 27.4287 16.4326C27.4254 19.349 26.2654 22.145 24.2032 24.2071C22.1411 26.2693 19.3451 27.4293 16.4287 27.4326ZM20.9137 10.5576C20.7575 10.4712 20.581 10.4281 20.4025 10.433C20.224 10.4378 20.05 10.4903 19.8987 10.5851L13.4287 14.6289V11.4326C13.4287 11.1674 13.3234 10.913 13.1358 10.7255C12.9483 10.538 12.6939 10.4326 12.4287 10.4326C12.1635 10.4326 11.9091 10.538 11.7216 10.7255C11.5341 10.913 11.4287 11.1674 11.4287 11.4326V21.4326C11.4287 21.6978 11.5341 21.9522 11.7216 22.1397C11.9091 22.3273 12.1635 22.4326 12.4287 22.4326C12.6939 22.4326 12.9483 22.3273 13.1358 22.1397C13.3234 21.9522 13.4287 21.6978 13.4287 21.4326V18.2364L19.8987 22.2801C20.0501 22.3747 20.2239 22.4271 20.4023 22.4318C20.5807 22.4365 20.7572 22.3934 20.9133 22.3069C21.0694 22.2204 21.1995 22.0937 21.2901 21.94C21.3808 21.7863 21.4286 21.6111 21.4287 21.4326V11.4326C21.4288 11.2541 21.3811 11.0788 21.2905 10.9249C21.2 10.771 21.0699 10.6442 20.9137 10.5576ZM19.4287 19.6289L14.315 16.4326L19.4287 13.2364V19.6289Z" fill="#030080"/>
</svg>
