<svg width="33" height="33" viewBox="0 0 33 33" fill="none" xmlns="http://www.w3.org/2000/svg">
<path d="M32.0701 15.0576L30.3201 10.6826C30.1716 10.3125 29.9154 9.9954 29.5847 9.77253C29.2539 9.54966 28.8639 9.43124 28.4651 9.43262H24.1426V8.43262C24.1426 8.1674 24.0372 7.91305 23.8497 7.72551C23.6621 7.53797 23.4078 7.43262 23.1426 7.43262H4.14258C3.61215 7.43262 3.10344 7.64333 2.72836 8.0184C2.35329 8.39348 2.14258 8.90218 2.14258 9.43262V23.4326C2.14258 23.9631 2.35329 24.4718 2.72836 24.8468C3.10344 25.2219 3.61215 25.4326 4.14258 25.4326H6.26758C6.48788 26.293 6.98828 27.0557 7.68989 27.6003C8.3915 28.1449 9.25441 28.4405 10.1426 28.4405C11.0307 28.4405 11.8937 28.1449 12.5953 27.6003C13.2969 27.0557 13.7973 26.293 14.0176 25.4326H20.2676C20.4879 26.293 20.9883 27.0557 21.6899 27.6003C22.3915 28.1449 23.2544 28.4405 24.1426 28.4405C25.0307 28.4405 25.8937 28.1449 26.5953 27.6003C27.2969 27.0557 27.7973 26.293 28.0176 25.4326H30.1426C30.673 25.4326 31.1817 25.2219 31.5568 24.8468C31.9319 24.4718 32.1426 23.9631 32.1426 23.4326V15.4326C32.1429 15.3041 32.1183 15.1767 32.0701 15.0576ZM24.1426 11.4326H28.4651L29.6651 14.4326H24.1426V11.4326ZM4.14258 9.43262H22.1426V17.4326H4.14258V9.43262ZM10.1426 26.4326C9.74702 26.4326 9.36034 26.3153 9.03144 26.0956C8.70254 25.8758 8.44619 25.5634 8.29482 25.198C8.14344 24.8325 8.10384 24.4304 8.18101 24.0424C8.25818 23.6545 8.44866 23.2981 8.72836 23.0184C9.00807 22.7387 9.36444 22.5482 9.7524 22.471C10.1404 22.3939 10.5425 22.4335 10.9079 22.5849C11.2734 22.7362 11.5858 22.9926 11.8055 23.3215C12.0253 23.6504 12.1426 24.0371 12.1426 24.4326C12.1426 24.9631 11.9319 25.4718 11.5568 25.8468C11.1817 26.2219 10.673 26.4326 10.1426 26.4326ZM20.2676 23.4326H14.0176C13.7973 22.5722 13.2969 21.8096 12.5953 21.265C11.8937 20.7204 11.0307 20.4248 10.1426 20.4248C9.25441 20.4248 8.3915 20.7204 7.68989 21.265C6.98828 21.8096 6.48788 22.5722 6.26758 23.4326H4.14258V19.4326H22.1426V20.9714C21.6827 21.2372 21.2802 21.5916 20.9584 22.0141C20.6365 22.4365 20.4017 22.9187 20.2676 23.4326ZM24.1426 26.4326C23.747 26.4326 23.3603 26.3153 23.0314 26.0956C22.7025 25.8758 22.4462 25.5634 22.2948 25.198C22.1434 24.8325 22.1038 24.4304 22.181 24.0424C22.2582 23.6545 22.4487 23.2981 22.7284 23.0184C23.0081 22.7387 23.3644 22.5482 23.7524 22.471C24.1404 22.3939 24.5425 22.4335 24.9079 22.5849C25.2734 22.7362 25.5858 22.9926 25.8055 23.3215C26.0253 23.6504 26.1426 24.0371 26.1426 24.4326C26.1426 24.9631 25.9319 25.4718 25.5568 25.8468C25.1817 26.2219 24.673 26.4326 24.1426 26.4326ZM30.1426 23.4326H28.0176C27.7946 22.5743 27.2933 21.8142 26.5921 21.2713C25.8909 20.7284 25.0294 20.4335 24.1426 20.4326V16.4326H30.1426V23.4326Z" fill="#030080"/>
</svg>
