<svg width="33" height="33" viewBox="0 0 33 33" fill="none" xmlns="http://www.w3.org/2000/svg">
<path d="M29.7223 26.9326C27.8185 23.6413 24.8848 21.2813 21.461 20.1626C23.1546 19.1544 24.4703 17.6182 25.2063 15.7898C25.9422 13.9615 26.0577 11.9421 25.5348 10.0418C25.012 8.14149 23.8799 6.46534 22.3122 5.27076C20.7446 4.07617 18.8282 3.4292 16.8573 3.4292C14.8864 3.4292 12.9699 4.07617 11.4023 5.27076C9.83467 6.46534 8.70252 8.14149 8.1797 10.0418C7.65688 11.9421 7.77231 13.9615 8.50826 15.7898C9.2442 17.6182 10.56 19.1544 12.2535 20.1626C8.82977 21.2801 5.89602 23.6401 3.99227 26.9326C3.92246 27.0464 3.87615 27.1731 3.85608 27.3051C3.83601 27.4371 3.84259 27.5718 3.87543 27.7013C3.90826 27.8307 3.96669 27.9523 4.04726 28.0588C4.12783 28.1653 4.22892 28.2545 4.34455 28.3213C4.46019 28.3881 4.58803 28.4311 4.72053 28.4477C4.85304 28.4642 4.98752 28.4541 5.11605 28.4179C5.24458 28.3817 5.36455 28.3201 5.46888 28.2367C5.57321 28.1534 5.6598 28.05 5.72352 27.9326C8.07852 23.8626 12.241 21.4326 16.8573 21.4326C21.4735 21.4326 25.636 23.8626 27.991 27.9326C28.0547 28.05 28.1413 28.1534 28.2457 28.2367C28.35 28.3201 28.47 28.3817 28.5985 28.4179C28.727 28.4541 28.8615 28.4642 28.994 28.4477C29.1265 28.4311 29.2544 28.3881 29.37 28.3213C29.4856 28.2545 29.5867 28.1653 29.6673 28.0588C29.7479 27.9523 29.8063 27.8307 29.8391 27.7013C29.872 27.5718 29.8785 27.4371 29.8585 27.3051C29.8384 27.1731 29.7921 27.0464 29.7223 26.9326ZM9.85727 12.4326C9.85727 11.0481 10.2678 9.69475 11.037 8.54361C11.8062 7.39246 12.8994 6.49526 14.1785 5.96544C15.4576 5.43563 16.865 5.29701 18.2229 5.5671C19.5808 5.8372 20.8281 6.50388 21.807 7.48285C22.786 8.46182 23.4527 9.7091 23.7228 11.067C23.9929 12.4248 23.8542 13.8323 23.3244 15.1114C22.7946 16.3905 21.8974 17.4837 20.7463 18.2529C19.5951 19.0221 18.2417 19.4326 16.8573 19.4326C15.0014 19.4306 13.222 18.6925 11.9097 17.3802C10.5974 16.0678 9.85926 14.2885 9.85727 12.4326Z" fill="#030080"/>
</svg>
